<svg id="Layer_1" data-name="Layer 1" xmlns="http://www.w3.org/2000/svg" viewBox="0 0 500 500">
  <defs>
    <style>
      .cls-1 {
        fill: #fefefe;
      }

      .cls-2 {
        fill: #d6d6d6;
      }

      .cls-3 {
        fill: #3e5d0f;
      }

      .cls-4 {
        fill: #335304;
      }

      .cls-5 {
        fill: #58771c;
      }

      .cls-6 {
        fill: #6d8d06;
      }

      .cls-7 {
        fill: #5b8004;
      }

      .cls-8 {
        fill: #496016;
      }

      .cls-9 {
        fill: #7e955b;
      }

      .cls-10 {
        fill: #e7e7e7;
      }

      .cls-11 {
        fill: #9bae71;
      }

      .cls-12 {
        fill: #4c6f13;
      }

      .cls-13 {
        fill: #5a7826;
      }

      .cls-14 {
        fill: #dfdfdf;
      }

      .cls-15 {
        fill: #a1b473;
      }

      .cls-16 {
        fill: #849562;
      }

      .cls-17 {
        fill: #dddedd;
      }

      .cls-18 {
        fill: #adbc8d;
      }

      .cls-19 {
        fill: #9bad7f;
      }

      .cls-20 {
        fill: #889c45;
      }

      .cls-21 {
        fill: #60821a;
      }

      .cls-22 {
        fill: #808f58;
      }

      .cls-23 {
        fill: #c9d6a6;
      }

      .cls-24 {
        fill: #c9d9ab;
      }

      .cls-25 {
        fill: #94a75d;
      }

      .cls-26 {
        fill: #e2e3e0;
      }

      .cls-27 {
        fill: #35530a;
      }

      .cls-28 {
        fill: #607c05;
      }

      .cls-29 {
        fill: #8c8d89;
      }

      .cls-30 {
        fill: #838580;
      }

      .cls-31 {
        fill: #a2a39e;
      }

      .cls-32 {
        fill: #4e6b07;
      }

      .cls-33 {
        fill: #90908f;
      }

      .cls-34 {
        fill: #496915;
      }

      .cls-35 {
        fill: #56741a;
      }

      .cls-36 {
        fill: #4c6b23;
      }

      .cls-37 {
        fill: #a2a2a2;
      }

      .cls-38 {
        fill: #233f02;
      }

      .cls-39 {
        fill: #718f43;
      }

      .cls-40 {
        fill: #203b02;
      }

      .cls-41 {
        fill: #7b9937;
      }

      .cls-42 {
        fill: #66832e;
      }

      .cls-43 {
        fill: #1f3b02;
      }

      .cls-44 {
        fill: #1d3902;
      }

      .cls-45 {
        fill: #274602;
      }

      .cls-46 {
        fill: #264403;
      }

      .cls-47 {
        fill: #557027;
      }

      .cls-48 {
        fill: #3e581d;
      }

      .cls-49 {
        fill: #3d5a1c;
      }

      .cls-50 {
        fill: #314a17;
      }

      .cls-51 {
        fill: #3f5a1d;
      }

      .cls-52 {
        fill: #40630e;
      }

      .cls-53 {
        fill: #677d34;
      }

      .cls-54 {
        fill: #516827;
      }

      .cls-55 {
        fill: #59742a;
      }

      .cls-56 {
        fill: #37570b;
      }

      .cls-57 {
        fill: #5f8029;
      }

      .cls-58 {
        fill: #324c08;
      }

      .cls-59 {
        fill: #425e0e;
      }

      .cls-60 {
        fill: #7f9e44;
      }

      .cls-61 {
        fill: #5d8303;
      }

      .cls-62 {
        fill: #567a03;
      }

      .cls-63 {
        fill: #517802;
      }

      .cls-64 {
        fill: #456903;
      }

      .cls-65 {
        fill: #355602;
      }

      .cls-66 {
        fill: #446b04;
      }

      .cls-67 {
        fill: #729111;
      }

      .cls-68 {
        fill: #395b01;
      }

      .cls-69 {
        fill: #6c901e;
      }

      .cls-70 {
        fill: #354e0e;
      }

      .cls-71 {
        fill: #8f8f8e;
      }

      .cls-72 {
        fill: #536d31;
      }

      .cls-73 {
        fill: #6b8446;
      }

      .cls-74 {
        fill: #758e50;
      }

      .cls-75 {
        fill: #6b814d;
      }

      .cls-76 {
        fill: #9eb581;
      }

      .cls-77 {
        fill: #92aa6f;
      }

      .cls-78 {
        fill: #b3c998;
      }

      .cls-79 {
        fill: #1d3305;
      }

      .cls-80 {
        fill: #b4c591;
      }

      .cls-81 {
        fill: #668342;
      }

      .cls-82 {
        fill: #475d24;
      }

      .cls-83 {
        fill: #839563;
      }

      .cls-84 {
        fill: #466023;
      }

      .cls-85 {
        fill: #426217;
      }

      .cls-86 {
        fill: #45631f;
      }

      .cls-87 {
        fill: #64813d;
      }

      .cls-88 {
        fill: #b9b9b9;
      }

      .cls-89 {
        fill: #637838;
      }

      .cls-90 {
        fill: #728952;
      }

      .cls-91 {
        fill: #a2b38e;
      }

      .cls-92 {
        fill: #8a9d71;
      }

      .cls-93 {
        fill: #1f3409;
      }

      .cls-94 {
        fill: #57772c;
      }

      .cls-95 {
        fill: #697352;
      }

      .cls-96 {
        fill: #294603;
      }

      .cls-97 {
        fill: #334f03;
      }

      .cls-98 {
        fill: #3e5d03;
      }

      .cls-99 {
        fill: #4b6704;
      }

      .cls-100 {
        fill: #203503;
      }

      .cls-101 {
        fill: #122001;
      }

      .cls-102 {
        fill: #283907;
      }

      .cls-103 {
        fill: #385a06;
      }

      .cls-104 {
        fill: #426605;
      }

      .cls-105 {
        fill: #678a19;
      }

      .cls-106 {
        fill: #72950c;
      }

      .cls-107 {
        fill: #678729;
      }

      .cls-108 {
        fill: #6a8148;
      }

      .cls-109 {
        fill: #274409;
      }

      .cls-110 {
        fill: #547321;
      }

      .cls-111 {
        fill: #6e8e14;
      }

      .cls-112 {
        fill: #2f4909;
      }

      .cls-113 {
        fill: #638620;
      }

      .cls-114 {
        fill: #5c7537;
      }

      .cls-115 {
        fill: #2b4705;
      }

      .cls-116 {
        fill: #45650f;
      }

      .cls-117 {
        fill: #6d7b50;
      }

      .cls-118 {
        fill: #233d06;
      }

      .cls-119 {
        fill: #3e5b1c;
      }

      .cls-120 {
        fill: #2c4809;
      }

      .cls-121 {
        fill: #6b8946;
      }

      .cls-122 {
        fill: #152703;
      }

      .cls-123 {
        fill: #637e2f;
      }

      .cls-124 {
        fill: #3e5b1f;
      }

      .cls-125 {
        fill: #365215;
      }

      .cls-126 {
        fill: #405a1e;
      }

      .cls-127 {
        fill: #274106;
      }

      .cls-128 {
        fill: #3f5220;
      }

      .cls-129 {
        fill: #4a6126;
      }

      .cls-130 {
        fill: #688239;
      }

      .cls-131 {
        fill: #4c6922;
      }

      .cls-132 {
        fill: #77924f;
      }

      .cls-133 {
        fill: #36530d;
      }

      .cls-134 {
        fill: #2f4e04;
      }

      .cls-135 {
        fill: #65891c;
      }

      .cls-136 {
        fill: #476b04;
      }

      .cls-137 {
        fill: #305201;
      }

      .cls-138 {
        fill: #f0f3e8;
      }

      .cls-139 {
        fill: #61861b;
      }

      .cls-140 {
        fill: #acb49c;
      }

      .cls-141 {
        fill: #a3bd61;
      }

      .cls-142 {
        fill: #b2c478;
      }

      .cls-143 {
        fill: #425d05;
      }

      .cls-144 {
        fill: #3b5118;
      }

      .cls-145 {
        fill: #617c42;
      }

      .cls-146 {
        fill: #658047;
      }

      .cls-147 {
        fill: #466714;
      }

      .cls-148 {
        fill: #274108;
      }

      .cls-149 {
        fill: #2d4d05;
      }

      .cls-150 {
        fill: #a2b889;
      }

      .cls-151 {
        fill: #587734;
      }

      .cls-152 {
        fill: #3f610a;
      }

      .cls-153 {
        fill: #5d793e;
      }

      .cls-154 {
        fill: #223c07;
      }

      .cls-155 {
        fill: #3e5822;
      }

      .cls-156 {
        fill: #527224;
      }

      .cls-157 {
        fill: #4e6837;
      }

      .cls-158 {
        fill: #435e2c;
      }

      .cls-159 {
        fill: #91ae5d;
      }

      .cls-160 {
        fill: #173101;
      }

      .cls-161 {
        fill: #86a248;
      }

      .cls-162 {
        fill: #6d8a28;
      }

      .cls-163 {
        fill: #2f4c0f;
      }

      .cls-164 {
        fill: #415c23;
      }

      .cls-165 {
        fill: #223b04;
      }

      .cls-166 {
        fill: #213e03;
      }

      .cls-167 {
        fill: #4a6817;
      }

      .cls-168 {
        fill: #253d09;
      }

      .cls-169 {
        fill: #a8ba91;
      }

      .cls-170 {
        fill: #75904f;
      }

      .cls-171 {
        fill: #769052;
      }

      .cls-172 {
        fill: #3a521d;
      }

      .cls-173 {
        fill: #5e7d33;
      }

      .cls-174 {
        fill: #89a133;
      }

      .cls-175 {
        fill: #305009;
      }

      .cls-176 {
        fill: #657f0c;
      }

      .cls-177 {
        fill: #314b15;
      }
    </style>
  </defs>
  <title>Artboard 1</title>
  <g>
    <path class="cls-1" d="M92,236q0-69.75-.08-139.5c0-3,.6-3.59,3.58-3.58q133,.15,266,0c3,0,3.59.6,3.58,3.58q-.17,82,0,164c0,3-.6,3.59-3.58,3.58q-133-.15-266,0c-3,0-3.73-.58-3.59-3.59.29-6.15.09-12.33.09-18.5a3.82,3.82,0,0,1,3.36.27c9.19,3.88,18.73,4.08,28.42,2.67a23,23,0,0,1,7.47-.16c10,1.87,19.87,0,29.72-1.43,6-.86,7.13-.09,7.39,5.94,0,1,0,2,.09,3,.35,4.54,2,5.69,6.56,4.78,14-2.8,26.78-8.87,39.28-15.57,4.55-2.44,9-5.1,13.59-7.41a20.24,20.24,0,0,0,7.87-6.72,35.18,35.18,0,0,0,6.48-25,14.8,14.8,0,0,1,.93-6.84c.85-1.52,2.3-2.49,3.66-1.27,3.9,3.46,9,5.31,11.49,10.71,4.17,9.17,11.84,15.51,19.63,21.58,7.76,5.73,16.42,5.51,25.3,3.83a66.41,66.41,0,0,0,14.25-4.46,197.74,197.74,0,0,1,26.28-9.48c4.06-1.12,8.66-1.68,11.08-6,2.46-3.34,0-4.52-2.51-5.66-6.17-3.81-11.24-9.19-18.06-12.15-3.09-1.34-3.81-5.28-5.85-7.86-1.77-3.23-4.42-5.71-7-8.22-4.57-4.44-9.31-8.67-14.92-11.79-.85-.49-1.73-.91-2.62-1.32-2.59-1.51-5.57-.82-8.3-1.5-3.28-.82-4.81-2.14-3.28-6a52.82,52.82,0,0,0,3.34-21.07c-.89-7.5-5.13-13.65-8.21-20.26-1.88-2.91-3.47-6.07-6.69-7.84-5.34-.23-10.63,1.27-16,.38-3-.63-4.6-2.88-6.17-5.18a20.26,20.26,0,0,0-2.35-3.3c-1.84-1.58-3.6-.28-5.38.15-3.33.66-5.87,2.94-8.85,4.32-2.27,2.3-4.38,4.8-7.61,5.84-1.71.59-3.45,1.11-5.15,1.73a31.16,31.16,0,0,0-3.18,1.16c-1.75.76-3.39,1.73-5.13,2.52a8.2,8.2,0,0,1-5.44.47c-14.84-8.79-31.42-9.91-48-10.92-8.44-1.11-16.92-.38-25.37-.46-5.8-.05-11.62-.53-17.39.4-6.83,1.22-8.11,3.82-4.67,9.87,7.33,12.86,16.15,24.74,25,36.55,4.69,6.26,11.72,10.2,18.12,14.67,2.24,1.56,5.14,2.8,4.45,6.45-2.3,2.92-6.16,1.66-8.91,3.35-1.15.44-2.29.9-3.48,1.24-7.25,2.32-12.88,7.36-19,11.48a149.81,149.81,0,0,0-15.19,12,46.88,46.88,0,0,0-9.17,11.47c-5.06,8.42-9.74,17.3-17.16,24.12C93.86,235.73,93.15,236.49,92,236Z"/>
    <path class="cls-2" d="M236.94,227.85c-2.75,5.54-8.42,7.25-13.26,10-15.31,8.68-30.77,17-48.28,20.56-6.24,1.27-8.28-.17-8.39-6.61-.14-8.15-.11-7.93-8-6.81-9,1.28-17.9,2.56-27.14,1.32-6.13-.83-12.55.43-18.84.7a40,40,0,0,1-21-5v-6c5.26-5.87,10.53-11.59,14.13-18.88,6.66-13.49,17.83-23,30.13-31.25q6.6-4.42,13.19-8.86c1.67-1.13,3.32-2.22,5.47-2.06.54,2.37-1.63,2.63-2.85,3.43-9.78,6.38-18.73,13.85-28,20.91a17.32,17.32,0,0,0-5.63,7.49c-3.61.23-3.53,3.4-4.55,5.7a6.46,6.46,0,0,1-.66,1.22c-4.86,4.93-7.45,11.4-11.44,16.92a38.18,38.18,0,0,1-4.47,5.94c-1.56,2.61.19,3.61,2.19,4.39a32.49,32.49,0,0,0,12.74,1.84c10-.25,19.92-.35,29.88-.13,8.06.18,15.82-1.38,23.54-3.36,4.49-.06,5.34,3,5.61,6.56.68,9.07.68,9.08,9.51,6.81,2.54-.65,5.16-1.08,7.5-2.37a219,219,0,0,0,29-13.38c5.27-2.27,10.07-5.42,15.12-8.1C233.83,228.1,235.14,226.78,236.94,227.85Z"/>
    <path class="cls-3" d="M236.94,227.85l-18.94,10a31.9,31.9,0,0,1-.73-13.57c-2,3.18-2.37,3.44-4.82,2.59-3.46-1.2-3.73-3.84-3.13-6.88a14.29,14.29,0,0,1,.84-3.37c2.77-4.46,7.11-7.66,9.79-12.19q4-4.9,7.91-9.85A19.9,19.9,0,0,1,229,193a12,12,0,0,1,.89-1c1.94-1.62,2.63-4.52,5.41-5.28a1.45,1.45,0,0,1,1.14.78c.49,2.25-.35,4.38-.56,6.57.15,9.1-2.49,17.56-6.15,25.79,1-2.6,1.23-5.46,3.93-7.11,3.48.72,5.55-1.65,5.28-4.22-.61-5.77,1.75-11.42.26-17.12-1.44-3.41,2.56-6.13,1.22-9.54,1.23-1.8,2.28-.65,3.11.32a11.44,11.44,0,0,1,2.47,5.29,8.62,8.62,0,0,1,.16,1.5,12.59,12.59,0,0,1-.11,2.23c0,1.59-1.43,2.51-1.86,3.9-1.74,6.11.45,12.42-1.1,18.6C241.84,218.75,240.63,223.81,236.94,227.85Z"/>
    <path class="cls-4" d="M168.44,102.84c16.65.42,33,2,47.67,11.1,5.33,1.83,8.08,6,10,11,.49,1.68,1.26,3.36.17,5.09-2.17,1-3.85-.13-5.52-1.29-4.44-2.31-6-7-8.71-10.7-2.06-2.84-4.15-3.76-6.91-1-2.2.64-3.24-1.15-4.58-2.24a16.92,16.92,0,0,0-12-4.1,1.58,1.58,0,0,1-1,.67c-3.71-2.74-8.1.55-12.67-2,4.2,4.12,8.83,6.49,10.53,11.5A2.24,2.24,0,0,1,184,122.3c-4.82-2.83-8-7.6-12.65-10.64-4-3-8.68-2.75-13.54-3,1.54,1.68,3.16,2.95,3,5.2a2.83,2.83,0,0,1-.58,1.25,2.09,2.09,0,0,1-2.59-.93c-1.76-2.64-3.26-2.81-5,0a2.82,2.82,0,0,1-3.54,1.1c-2.58-1-5.25-.44-7.89-.55a5.24,5.24,0,0,1-2.28-.76c-3.37-2.41-6.83-4.66-10.34-6.84-1.37-.85-3.06-2-2.34-3.9.55-1.42,2.35-.72,3.58-.7C142.65,102.7,155.55,102.09,168.44,102.84Z"/>
    <path class="cls-5" d="M329.17,183.94c2.46,7.27,9.76,9.16,15,13.38,2.88,2.34,5.91,4.51,8.87,6.76a1.14,1.14,0,0,1-.16,1.47c-3.72,2.74-7.55,1.85-11.4.34a11.55,11.55,0,0,0-4.91-2c-1.52-.3-2,0-1.83,1.58a7,7,0,0,1-3.59.83,14,14,0,0,1-4.38-.47c-1.56-.81-3.08-1.78-5-1.08a3.74,3.74,0,0,1-2.74-.46,2.35,2.35,0,0,1-.58-1.3,2.47,2.47,0,0,1,.5-1.31c.8-.85,2.2-.43,3.54-2-7.19,2.62-11.15-1.32-14.89-5.76.71-5,5.13-5,8.58-5.95,2.74-.74,5.62-.85,7.48-3.41a4.22,4.22,0,0,1,1.82-1.3A4.7,4.7,0,0,1,329.17,183.94Z"/>
    <path class="cls-6" d="M117.91,207c-.46-4.59,3-6.89,5.88-9.13,10.15-7.95,20.37-15.82,31.13-23l3.07-1c-.9,4.78-4.57,7.57-7.74,10.68-1,1-2.46,1.59-3.36,2.79-1,1.88-3.53,1.58-4.55,3.38a3.83,3.83,0,0,1-1.86,5.33c-2.07,1-.78,1.73-.36,2.69-2.75,2.2-6.29.28-8.89,1.65,3.28-.76,7-.51,10.59-1.14,2.82,1.58,6.48,2.67,5.45,7-.73,3.11-3.85,3.86-9.32,2.75-5.05-1-10.11-1.86-14.54,1.92a7.56,7.56,0,0,1-6.16-.63C116.12,209,116.83,208,117.91,207Z"/>
    <path class="cls-7" d="M146,187a65.74,65.74,0,0,0,12-13c2.43-2.81,6.2-1.41,9.05-2.9a4.52,4.52,0,0,1,3.91-1.25c2.75.95,5.45,2,8.46,2a4,4,0,0,1,3.94,2.39c.17,3.12-2.15,2.9-4,2.72a66.72,66.72,0,0,1-8.21-1.44c-2.12-.47-4-.17-4,2.69-.84.65-2.2.92.11,1.82,6.62,2.58,13.33,5,19.39,8.88,1.24,1.9.83,3.68-1.05,4.57a5.27,5.27,0,0,1-6.62-1.59c-7-3-14.28-4.85-22-3.92-2.86.23-5.59,1.49-8.53,1.06A3.22,3.22,0,0,1,146,187Z"/>
    <path class="cls-8" d="M168.44,102.84H125.86c4.55,5.22,10.84,6.33,14.15,11.15l-.51.48c-3.37,1.09-4.86-2.41-7.82-2.84,3.91,2.79,3.75,8.76,9,10.64,1.55.56,2.26,2.54,2.29,4.22.15,7.74,5.9,11.95,10.61,16.65,3.16,3.15,7,5.63,9.53,9.42,1.07,1.59,2.06,3.18-.07,4.73-3.91.26-5.83-2.89-8.17-5.05-13.26-12.21-21.93-27.77-31-43a12.84,12.84,0,0,1-1.48-4.22,2.13,2.13,0,0,1,.74-2,5.06,5.06,0,0,1,3.7-1c13.26.11,26.52.17,39.77.28A7.29,7.29,0,0,1,168.44,102.84Z"/>
    <path class="cls-9" d="M288.07,114A55.44,55.44,0,0,1,296.88,134a3.54,3.54,0,0,1-2.57,1,4.21,4.21,0,0,1-1.93-.47c-1-.7-.67-2.3-1.87-2.88-7.5,6-13.67,1.09-20-2.42-.26-2,.93-3.55,1.62-5.25.63-1.18,1-2.57,2.22-3.33,1.82-.57,2.28-2.75,4-3.41C281.9,117,285.31,116.45,288.07,114Z"/>
    <path class="cls-10" d="M123.1,103l-.15,2c-2.82,4.61-.66,8.35,1.93,12.16,6.62,9.74,13.19,19.53,20.16,29,5.71,7.77,13.89,12.71,21.86,17.82,2.22,1.42,4.76,2.5,5.43,5.46-.07.9-.87,1.06-1.44,1.46l-3.85.14a4.57,4.57,0,0,0-2.72-3.91c-15-8.27-25.15-21.24-34.15-35.37-3.92-6.15-8.36-12-11.92-18.36C115,107.61,116.94,103.39,123.1,103Z"/>
    <path class="cls-11" d="M225.89,110.84c.69-1.1,1.92-.83,2.91-1.14,1.32.5,2.89,0,4.1,1-1.2,2.94.52,4.8,2.47,6.58.23,3,2.47,4.52,4.47,6.22,1.37,1.17,3,2,3.87,3.74a6.49,6.49,0,0,1,.4,1.39c.45,3-1,5.81-.7,8.77-1,4.13-1.18,4.15-5.78.63-1.6-1.39-3.67-2.38-4.19-4.73-.5-4.2-4-6.74-5.72-10.26C225.77,119.11,224.07,115.26,225.89,110.84Z"/>
    <path class="cls-12" d="M329.17,183.94,325,184c-4.76,0-9.46-.88-14.21-1a13.28,13.28,0,0,0-4.88-.42c-2.37.23-5.22-.08-5.77-2.68-.6-2.88,2.77-2.39,4.14-3.35-3.26.36-5.5,3.17-8.55,4.43a22.21,22.21,0,0,1-3.66,1.51c-1.16.25-2.52.41-3-.92-.36-1,.52-1.85,1.35-2.44,2.31-1.63,5-2.64,7.42-4,2.81-1.24,5.48-2.91,8.73-2.7,5.36.44,11.08-.72,15.59,3.49C324.84,178.3,327.47,180.71,329.17,183.94Z"/>
    <path class="cls-13" d="M294.05,134h2.82a52.27,52.27,0,0,1-4.72,25.67c4.13,2.06,9.26.15,13.16,3.13-4.27,1.4-9.07,1.05-12.91,3.91a19.8,19.8,0,0,1-1.81,1.69c-1.65,1.3-3.83,2.47-5.26.61s.84-3.44,2.27-4.14c4.25-2.08,1.51-6.4,3.31-9.22-1.11,0-1.62,1-2.46,1.38-1,.49-2.1,1.47-3.19.83-1.57-.93-.08-2.33-.15-3.9-3.49,2.65-6.49,1.52-9.31-.94,2.76-3.66,7-4,11-4.93,1.21-.29,4.07.19,1.87-2.66a3,3,0,0,1-1-2.48C290.45,140.47,293.43,138.1,294.05,134Z"/>
    <path class="cls-14" d="M356.06,210.18c-.47,3.63-3.31,4.87-6.2,5.71-12.3,3.57-24.23,8.1-36.12,12.87-8.42,3.38-17.46,5.37-26.72,3.19-3.69-.87-7.5-1.66-10-4.94a2.81,2.81,0,0,1,2.2-.82c12.65,5.93,24.89,3.23,37.06-1.69,10.31-4.17,20.57-8.5,31.47-11a9.33,9.33,0,0,0,5.48-3.23C354.12,209.62,355.07,209.15,356.06,210.18Z"/>
    <path class="cls-15" d="M257,98,259,101c.69.77.65,1.86-.24,2-3.56.47-2.61,3-2.66,5.17-1.69,1.13-2.84.36-3.75-1,1.62,5.3.9,6.58-4.94,8.65-2.31.08-3.3-2.94-5.79-2.46a15.6,15.6,0,0,1-4.88-2.29,2.6,2.6,0,0,1-.14-2.1C242.93,104.5,249.48,100.33,257,98Z"/>
    <path class="cls-16" d="M247,115c2.75-1.49,7-2,4.11-7-.73-1.23,1-2,1.48-3.46.42,2.16.9,3.88,3.31,3.5,2.25-2.56,5.22-2.08,8.12-1.9,4.56.21,9.1.3,13.57-1,1.51-.44,3.22-.93,4.4.83,0,3.08-.91,5.69-3.73,7.34a3.51,3.51,0,0,1-1.9-1c-2.43-3-5.68-3.42-9.22-3a29.66,29.66,0,0,0-11.93,4.1c-2.38,1.36-3,2.61-2,5-1.43,2.15-2.8,1.22-4.17-.08C248.55,117.15,246.47,116.85,247,115Z"/>
    <path class="cls-17" d="M279,227h-2c-8.42-6-15.65-12.94-20.3-22.4-2.5-5.08-7.27-7.72-12.43-9.6l.84-4c5.58,2.49,11.3,5.62,13.9,11,4.08,8.43,10.64,14.34,17.13,20.51,1.08,1,2.47,1.71,3.16,3.13A1.3,1.3,0,0,1,279,227Z"/>
    <path class="cls-18" d="M225.89,110.84c0,7.05,2.75,13,7.43,18.15.91,1,2.51,2.57.45,4.18a3.07,3.07,0,0,1-2.58.71,13.71,13.71,0,0,1-2.65-.72,4.73,4.73,0,0,1-2.78-1.92,1,1,0,0,1,.33-1.2c.9-1.94-1.11-3.28-1-5.05.21-2.67-1.64-4.45-2.75-6.58-.85-1.63-2.77-3.13-1.3-5.36Z"/>
    <path class="cls-19" d="M278.11,113.07,282,106a20.58,20.58,0,0,1,6,8c-1.23,6.53-6.49,3.22-10,4.1.45-1.26-.3-1.8-1.32-2.18A2.54,2.54,0,0,1,278.11,113.07Z"/>
    <path class="cls-20" d="M257,98c-6.25,4.42-13.16,7.65-20,11-1.33.72-2.6,1.22-3-1a28.2,28.2,0,0,0,7-5.85,33.59,33.59,0,0,0,9.71-4.28C252.86,97.46,255,94.22,257,98Z"/>
    <path class="cls-21" d="M322.15,175.94C317,173.5,311.24,174.8,306,173l.49-.53c2.34-1.12,4.87-.67,7.32-1-4.54.68-7.67-3.53-12.06-3.46a2.18,2.18,0,0,1-.08-2.09c1.47-1.49,3.6-1.27,5.33-2.06A51.52,51.52,0,0,1,322.15,175.94Z"/>
    <path class="cls-22" d="M356.06,210.18c-.81-.09-1.64-.23-2.17.65-2.1,2.14-4.77,2.69-7.62,2.71a2.43,2.43,0,0,1-1.58-2.26c2.37-2.61,5.5-4.23,8.3-6.28q0-.46,0-.92C355.41,205.41,360.12,205.59,356.06,210.18Z"/>
    <path class="cls-12" d="M307,163.92c-.6,3.27-3.24,1.66-5,2.09-1.95,1.58-4.29,1.63-6.62,1.72A5,5,0,0,1,292,166c4-2.85,8.31-4.56,13.33-3.15Z"/>
    <path class="cls-23" d="M264.05,106.14l-8.12,1.9c-5.23-5,.79-5.19,3-7C260.56,102.84,261.82,105,264.05,106.14Z"/>
    <path class="cls-24" d="M221,113c1.62,3.29,3,6.71,4.94,9.82,1,1.68.53,1.89-.89,2.12a28.58,28.58,0,0,0-8.95-11A9.41,9.41,0,0,0,221,113Z"/>
    <path class="cls-25" d="M234,108.06c.74,1.13,1.91.89,3,1q0,1,0,2c-1.31,3.13-2.65,1-4,0-1.5-.15-3.22.38-4.23-1.33Z"/>
    <path class="cls-26" d="M250.78,97.93c-2.26,3.63-6,4-9.71,4.28C244.28,100.72,246.86,97.8,250.78,97.93Z"/>
    <path class="cls-27" d="M210,220c1,.9,0,1.84,0,2.75,0,2.46,2,2.77,3.61,3.46,1.84.81,2.06-1,2.77-2s.6-2.27,2.13-2.48c-1.46,5.37,1,10.81-.52,16.14a150.78,150.78,0,0,1-28.9,13.26,5.68,5.68,0,0,1-3.73.33c-1.64-4.34,1.59-6.1,4.5-7.16,3.76-1.36,6-3.16,5.5-7.42a3,3,0,0,1,1.44-3c2.61-1.73,3.81-4.45,5.08-7.12C204.11,224,205.66,220.33,210,220Z"/>
    <path class="cls-28" d="M117,210c2,0,4.1-.17,5.94,1-.29,2.54,1.83.4,2.42,1.23a6.23,6.23,0,0,1,1.35.55c1.25.94,2.87.75,4.21,1.37,2.42,1.13,3.91,2.64,1.75,5.31-9,1-16.42,5.33-23.63,11.08.71,1.23,3.07.38,3.19,2.18a3,3,0,0,1-1.73,2.09c-3.69.37-5.42,3.25-7.39,5.82-5.89-.87-6.65-1.56-6-5.45l4-5c4.84-5.08,7.51-11.69,12-17l0,0C114,211.47,114.43,209.44,117,210Z"/>
    <path class="cls-29" d="M97.15,235.16c.17,4.61,4.08,3.83,6.82,4.73,3.83-1.54,7.42.66,11.16.69,1.64,0,3.28,0,4.92,0,2.85.34,5.51-.92,8.32-1,8.41-.4,16.83,1.38,25.23,0,3.74.32,7.38-1.37,11.14-.56a2.93,2.93,0,0,1,1.39,1c-5.43,2.81-11.46,3.5-17.31,3.71-13.75.49-27.52.23-41.29.29a28.62,28.62,0,0,1-9.21-1.88C94.1,240.78,93.77,238.53,97.15,235.16Z"/>
    <path class="cls-30" d="M166.13,240.07l-1.5-.3c1.4-2.68,4.12-3,6.62-3.73,2.74-.12,3.74,1.52,4,3.94a25.24,25.24,0,0,1-.45,5.85c-.87,6.18-.26,6.72,5.68,5.19,1.52-.24,3-.85,4.57,0l4.09.11c-4.57,2.92-10,3.16-15,4.7-2.46.76-4.13-.65-4.11-3.48,0-2.48,0-5,0-7.46C170,242.23,169,240.41,166.13,240.07Z"/>
    <path class="cls-31" d="M113.21,213.19c-3.17,6.26-5.88,12.85-12,17C105,224.39,106.8,217.17,113.21,213.19Z"/>
    <path class="cls-31" d="M117,210l-3.81,3.18c-.44-2.25.45-4.23,1.42-6.13s2.17-1.47,3.27,0Z"/>
    <path class="cls-32" d="M245,188.07c-.93-2.29-.67-5.39-4.07-6-1.31,1-2.14.12-2.82-.84-1.8-2.53-4.83-2.5-7.32-3.58-1.36-.73-2.66-1.51-2.19-3.41a2.58,2.58,0,0,1,1.12-.94,4.55,4.55,0,0,1,2.17-.15c3.07.71,5.79,4.51,9.33,1.05a13.38,13.38,0,0,0,2.81-8.91c-.12-2.4-.24-5.59,3.73-5.66,1.06.61,1.35,1.79,2,2.72a5.09,5.09,0,0,0,3.7,2.39c1.52,1.15,4.08.69,4.8,3.08-.65,1.45-2.6,2.31-1.94,4.35-.22,1.36-2,1.65-2.12,3.07a16.43,16.43,0,0,0-1.55,2.05,14.48,14.48,0,0,0,3.69,11.8c1.49,1.69,3.37,3.35,1.93,6-3.41,1.29-5.47-1-6.84-3.29C249.82,189.2,247.72,188.34,245,188.07Z"/>
    <path class="cls-33" d="M245,188.07c2.91-1.58,5.27-2.17,6.71,2A7.62,7.62,0,0,0,258,195c3.37-.89,4.75.93,5.31,3.88.69,4.3,3.82,7.15,6.22,10.43,2.24,2.52,4.69,4.82,7.09,7.18a31.77,31.77,0,0,0,5.37,4.22,26.52,26.52,0,0,0,15.71,5c1.89.14,3.91-.23,5.45,1.34-1,3.27-4.11,1.8-6.2,2.58-1.71.64-3.57.43-5.37.43-3.72-.31-7.41-.78-10.65-2.87-6.4-5.47-13.07-10.67-18-17.68a23,23,0,0,1-3.6-6.47c-.59-2-1.51-4.11-3.39-4.7-5-1.58-7.45-5.86-10.79-9.23A4.05,4.05,0,0,1,245,188.07Z"/>
    <path class="cls-34" d="M230,193.13,229,195a22.93,22.93,0,0,0-8,9.9c-2.59,4.64-6.78,7.95-10,12.1a20.07,20.07,0,0,1-6.93,6.31,2.06,2.06,0,0,1-1.81-.91,2.69,2.69,0,0,1-.53-2c2.17-2,3.77-4,2-7.23-.94-1.74.25-3.45,2-3.86,4.25-1,6.45-4.4,9.43-7.23-1.46-1.33-2.87-.49-4.23-.29a3.79,3.79,0,0,1-2.87-.44,1.51,1.51,0,0,1-.39-1.4A3.85,3.85,0,0,1,210,198c3.5-1.53,7.59-.63,11-2.7,1.84-1.43,2.74-3.87,5.12-4.73C227.89,190.61,229.42,191.13,230,193.13Z"/>
    <path class="cls-35" d="M230,193.13,226,191c-1-.44-1.5-1.09-1.06-2.21.57-1.27,3.25-.47,2.73-2.81a5.07,5.07,0,0,1,.16-5.34c-.46-1.08-1.73-2-.68-3.38a3.08,3.08,0,0,1,3.93-.27c4.44-.56,7,2.53,9.88,5,.4.89.8,1.78,1.19,2.68.5,1.16,2.14,2.38-1.13,2.27-2.21-.08-.49,2.65-1,4,.87,1.59.27,2.35-1.41,2.49-1.82-.66-1.57-2.23-1.48-3.63.08-1.18.19-2.25-1.11-2.84l-.92,0c-.73-1.29.33-2.07,1.11-3.69-2.29,3.65-4,6.81-6.21,9.67Z"/>
    <path class="cls-36" d="M238,193a1.85,1.85,0,0,0,2-2c1.81,2.17,1.11,4.78.81,7.07-.4,3.08-.88,5.94-.11,9.14s-1.78,5.45-4.06,7.28c-1.35,1.09-2.44.25-2.66-1.47a2.69,2.69,0,0,1-.23-3.27c2.32-4.54,1.32-9.39,1.5-14.14A3.42,3.42,0,0,1,238,193Z"/>
    <path class="cls-37" d="M245.16,189c1.92.05,2.85,1.42,3.79,2.82.55.82,1,2,1.81,2.28,7.66,2.42,9.37,9.9,13.31,15.45,4.63,6.53,10.75,11.5,16.89,16.46a1.39,1.39,0,0,1-2,0c-8.65-6.49-16.78-13.42-20.94-23.89-.88-2.21-3-3.22-5-4.44-2.92-1.73-5.3-4.38-7.9-6.64Z"/>
    <path class="cls-38" d="M235.93,195.1c.56,6.1,1.32,12.22-1.92,17.91-2.55,1.76-1.5,5.77-5.66,8,3.73-9.31,6.11-17.93,6.58-27A1.08,1.08,0,0,1,235.93,195.1Z"/>
    <path class="cls-39" d="M235.93,195.1l-1-1.08a21.6,21.6,0,0,1,1.09-7c1.3-.48,3.18-1.8,2.71,1.17-.25,1.6-.84,3.15-.71,4.82A3.81,3.81,0,0,1,235.93,195.1Z"/>
    <path class="cls-40" d="M203.95,222.93,211,217l-1,3a30.18,30.18,0,0,0-7,7c-.89.32-1.25-.21-1.48-.94C201.48,224.36,202.62,223.57,203.95,222.93Z"/>
    <path class="cls-41" d="M230,193a27.48,27.48,0,0,1,7.68-11.21l-2.58,5.23C233.4,189.06,232.47,191.71,230,193Z"/>
    <path class="cls-42" d="M221,204.91c.12-3.72,3.52-7.91,8-9.9Z"/>
    <path class="cls-43" d="M188,109.86a4.55,4.55,0,0,1-.63-1.33c-.12-1.06.41-.82,1.12-.54,5.84,2.36,12.24,3.69,16.47,9l.6.35c3.4,4.13,3.81,9.81,7.22,13.95a3.27,3.27,0,0,1,.79,1.23c.39,4.7.6,9.35,2.67,13.82,1.65,3.56-.27,5.51-4.46,5.3A82.64,82.64,0,0,0,199,144.26c-3.52-1.65-7.53-2.71-9.71-6.44-.21-5.92-2.92-11.2-4.31-16.82-3.29-4.94-8.44-8.09-13.34-13,4.73.52,8.17,2.48,11.93.3,1.49-.86,2.71,2.07,4.39,2.76,5.57,3.31,8,9.3,12,14,1.44,2.05,2.66,4.25,4.18,6.26a38.65,38.65,0,0,1,4.67,9.09,32.9,32.9,0,0,0-4.77-9.23c-1.46-2-2.63-4.26-4.16-6.26A144.11,144.11,0,0,0,188,109.86Z"/>
    <path class="cls-44" d="M142,114c1.59-1.67,4.51-1,5.3-.62,3.39,1.59,5,1,5.94-2.53.56-2,1.74-1.19,2.92-.23,1.54,1.25,1.87,3.53,3.83,4.39,2.61,1.17,2.42,4.13,3.79,5.58-.44-1.63-2-3.33-2.28-5.5.68-2.1,2-1.14,3.17-.62,6,2.69,6,2.7,7.35-3.47a48.59,48.59,0,0,1,11.91,11c4.62,4.31,5.61,9.85,5.41,15.81-2.21,1.81-4.09,0-6-.64a63.16,63.16,0,0,1-9.47-4.43c-7.59-5.08-16.09-8.41-24.12-12.65C146.85,118.62,143,118,142,114Z"/>
    <path class="cls-45" d="M172,111a15,15,0,0,1,.82,3.3,4.81,4.81,0,0,1-2.15,4.19c-1.6,1.07-2.64-.26-3.85-1.12-1.46-1-2.6-2.85-4.82-2.37-1.18.61-1.45-.49-2-1.06-.11-3-3.42-3.85-4.46-6.62C161.27,108,167.29,106.36,172,111Z"/>
    <path class="cls-46" d="M205,117c-.18-2.05.75-2.82,2.8-3.18,1.77-.31,2.87,0,3.78,1.43,1.53,2.34,3.61,4.52,4.42,7.09.9,2.86,4.3,3,5,5.65-2.26,2.09-4.28.11-6.39-.38-2.72-.79-3.82-3.62-6.15-4.9-1.56-1.66-1.95-4-3.47-5.72Z"/>
    <path class="cls-47" d="M142,114c6.36,4.76,13.74,7.62,20.8,11.08,4,1.93,8,3.73,11.23,6.86a.86.86,0,0,1-.13,1.25c-5.28-.55-9.14-4.3-13.83-6.22a107.87,107.87,0,0,1-12.39-6.09c-2.36-2.51-7-2.5-7.67-6.89h0Z"/>
    <path class="cls-48" d="M189,138c.3-5.95-2.3-11-5.08-15.94l1.06-1a24.71,24.71,0,0,1,5,17A.79.79,0,0,1,189,138Z"/>
    <path class="cls-49" d="M188,109.86a42.27,42.27,0,0,1,12,15.09l-.11.1-12-14Z"/>
    <path class="cls-50" d="M215,127c2.13-.47,3.81,1.84,6,1l5.09,2a1.4,1.4,0,0,1,.26.81c-3.77,1.87-7.41,0-11-.58C213.72,130,213,128.32,215,127Z"/>
    <path class="cls-51" d="M160,114l2,1.06c1.08,2.63,3.2,4.93,2.75,9.59L160,115Z"/>
    <path class="cls-52" d="M324,185c-.65,3.53-3.46,3.73-6.2,4-4,.33-7.63,1.16-9.76,5,.36,3.07-2.33,3.79-4.06,5.25a1.7,1.7,0,0,1-1.64-1.13,4.15,4.15,0,0,1-.19-1.93c.82-5.34.82-5.34-4.69-5.54-1,0-2.06.09-2.4-1.12-.25-.89.4-1.55,1-2.09a6.91,6.91,0,0,1,4.33-2.06c5.06-.73,9.79-3.06,15.12-2.55C318.49,183.12,321.43,183.14,324,185Z"/>
    <path class="cls-53" d="M353,205c-2.2,2.61-4.08,5.65-8,6-2.8,1.55-6.05,1.92-8.88,3.41-4.76-1.47-5.53-5.14-5.18-9.42l4.05,0a5,5,0,0,1,6,0C345,205.77,349,206.68,353,205Z"/>
    <path class="cls-54" d="M331,205c1.64,3,1.49,7,5,8.94-2.59,1.7-5.7,2.66-7.61,5.34a2.89,2.89,0,0,1-1.34.26c-2.76-2.2-6.55-1.86-9.43-3.78a3.9,3.9,0,0,1-1.83-2.1c.55-1.72,2.09-1.64,3.44-1.91,1.64-.05,2.65-1.34,4-2.06a26.43,26.43,0,0,1,6,2.31c-.72-1.14-2.86-.77-3.49-2.42-.08-1.53-.39-3.08.31-4.57Z"/>
    <path class="cls-55" d="M320,213c-1.39.15-3-.44-4,1-1.77,1.29-3.35.28-5-.39a2.79,2.79,0,0,1-1.35-2.47,4.46,4.46,0,0,1,1.06-1.57,2,2,0,0,0-.39-3.3c-1.81-1-1.27,1.64-2.38,2a1.85,1.85,0,0,1-1.48-.19c-2.55-3-1.63-5.39,1.32-7.41,2.53-.09,5.11-.45,7.26,1.4.83,1-1.46,1.39-.66,1.9,1.3.83,1.72-1.17,2.81-1.42a1.58,1.58,0,0,1,1.82.57l0,1a1.91,1.91,0,0,1,.38,1.24C318.53,208,320.39,210.41,320,213Z"/>
    <path class="cls-56" d="M304,198.79c.38-2.38,3.4-2.57,4-4.79,3.92,0,4.44,6,8.91,5.15.73-.13,2,.62,2.27.32,3.65-4.55,3.89-.21,5.13,2.09-1.7.91-3.48.28-5.17.36-3.31.27-6.49-.58-9.68-1.22-1.12-.7-2.42-.45-3.64-.66A2.5,2.5,0,0,1,304,198.79Z"/>
    <path class="cls-57" d="M324,185c-7.13-1.88-14.13-1.77-20.91,1.43-1.11.52-2.19.75-3-.46,2.33-3.76,6.27-3.57,9.95-4,5.08.15,10.29-.68,15,2Z"/>
    <path class="cls-58" d="M319.09,204.91a5.9,5.9,0,0,1,0-.79L322,204a10.52,10.52,0,0,1,4,5c1.52,1.46,4.08,1.45,5.22,3.82-3.27.34-5.74-1.24-8.2-2.84A5.11,5.11,0,0,1,319.09,204.91Z"/>
    <path class="cls-59" d="M341,205h-6a12.28,12.28,0,0,0-2.17-.94c-1.19-.27-1.88-.78-1.17-2,.49-.83,2.07-1.88,2.16-1.58C334.95,204.1,339.89,201.53,341,205Z"/>
    <path class="cls-55" d="M326,209c-1.87-1.25-3.69-2.53-4-5,1.76-1.37,3.3-1.81,4,1C326.51,206.34,327.82,207.67,326,209Z"/>
    <path class="cls-60" d="M309,200c3.29,1.1,6.94.37,10.14,1.94l-.11,1.19-2.16.06a1.22,1.22,0,0,1-1.78-.28c-2.1-1.64-5-.26-7.11-1.85-.51,0-1.13-.22-.93-.73C307.43,199.33,308.23,199.44,309,200Z"/>
    <path class="cls-61" d="M140,198c-.65-.07-1.56.1-1.91-.26-1-1,.29-1.37.86-1.69,2.5-1.43,3.88-3.17,2-6,5.73-.89,11.41-1.75,17,.94a22,22,0,0,0,8.28,1.68,11.32,11.32,0,0,1,4.83,1.11c1.35.73,2.71,1.62,2.87,3.23.21,2-1.84,2-3,2.74-2.67,1.62-5.72,1.6-8.69,1.95-4.4-.31-8.47-2.18-12.83-2.76a10.44,10.44,0,0,0-4.79.09C143,199.24,141.37,199.23,140,198Z"/>
    <path class="cls-62" d="M125,213c-1-.25-2.29.62-3.05-.53-.12-.19.66-1,1-1.49-.06-1.67.46-2.56,2.35-3.1a24.54,24.54,0,0,1,14.16.22c2.78.84,5.35,1.3,6.78-1.84s-1.93-3.57-3.42-5a10.48,10.48,0,0,1-.91-1.17l.56-.58a7.48,7.48,0,0,1,6.92.66c2.08,1.94,5,1.59,7.38,2.68,1.89.86,3.6,1.91,3.84,4.15.27,2.55-1.9,3.22-3.6,4.18a20.2,20.2,0,0,1-12.36,2.37c-6.12-.68-12.08-3.55-18.41-1.26A3.83,3.83,0,0,0,125,213Z"/>
    <path class="cls-63" d="M162,200.94l11.78-3.45c-4.61-5.44-11.58-2-16.08-5-5.43-3.53-11.3-.89-16.72-2.52,1-2.11,4.06-.8,5-3l2,1c4.27,1.4,8.57-.49,13.07.47,5.24,1.12,10.43,2.78,15.82,3.28,2.91,1.35,7.37,2,6.95,5.88-.4,3.64-4.88,3.09-7.78,4a39.83,39.83,0,0,1-8.7,1.93A7.58,7.58,0,0,1,162,200.94Z"/>
    <path class="cls-62" d="M140,198h5c1.29-.53,2.6-1.14,3.18.89-1.84,1.48-4.25-.2-6.13,1.08l-.12.09c-3.92.6-7.82,1.51-11.9.71C132.77,197.52,137.11,200.33,140,198Z"/>
    <path class="cls-64" d="M167,178l-2.65-1.89c4.5-4.29,9.12-1,13.61-.56,1.78.16,3.51,1.07,5-.55,3.2-1,5.67.65,8.07,2.35,1.87,1.32,3.62,2.81,6,3,1.8.66,2.32,2.56,3.61,3.7,1.09,1.58,3.19.83,4.48,2-1.42,4.68-5.25,3.51-8.59,3.55a4.16,4.16,0,0,1-1.32-.44c-5-3.25-9.79-6.77-16.16-6.56-3.41-.53-6.59-1.94-10-2.52C168.09,179.87,166.74,179.68,167,178Z"/>
    <path class="cls-65" d="M167,178l13.1,3.94c6.12.51,10.79,4.25,15.9,7v.15c.37,1.68-.11,2.83-2,3.12-2.34-1.93-5.67-1.43-8.07-3.23-8.11-2.63-15.38-7.23-24-9.46C163.75,177.35,165.51,178.27,167,178Z"/>
    <path class="cls-66" d="M186,189c2.64,1.06,6.62-1.52,8,3a3.22,3.22,0,0,1-.82,1.88c-1.56,1.93-4.66,2.52-4.92,5.6-4.41.83-8,3.47-12,5.25-1.9.85-3.63,2.25-5.93,1.88A4.86,4.86,0,0,1,167,203c4.35-1.17,8.71-2.3,13-3.56,1.18-.35,3-.22,3.25-1.75s-1.3-2.11-2.44-2.72-2.21-2-3.87-1.95a1.69,1.69,0,0,1-.15-2.14A1.73,1.73,0,0,1,179,191C185.16,194.08,186,193.83,186,189Z"/>
    <path class="cls-67" d="M196.9,181c-1.59,1-3,.24-4-.79-2.78-2.77-6.25-4.11-9.88-5.2-.79-1.76-2.31-2.17-4-2a11.68,11.68,0,0,1-8.11-2.06l1.19-1a3.38,3.38,0,0,1,2-1.06c7,.1,13.59,2.36,20.2,4.35,1.37,1.2.63,3.44,2.22,4.54C197,178.82,197.72,179.82,196.9,181Z"/>
    <path class="cls-68" d="M177,191q0,1,0,2L148,188l9-1.12C164,186.92,170.77,187.63,177,191Z"/>
    <path class="cls-69" d="M177,191c-6.47-2.18-13.23-2.93-19.9-4.13,7.79-2,14.77,1.32,22,3.28.1,0,.2.28.18.42s-.16.28-.25.42Z"/>
    <path class="cls-70" d="M140,114c1.94,3,5.83,3.34,8.09,5.91,1,2.48,2,4.93,4.15,6.69,2.7,2.21,2.7,4.41-.58,6.64a18,18,0,0,0,9.22,2.47,30.28,30.28,0,0,1,5.48.21c1.07.2,2.62.21,2.47,1.79-.1,1.11-1.43,1.27-2.4,1.4-2.16.29-4.31-.31-6.28-.11a16.78,16.78,0,0,1,4.23.47,14.47,14.47,0,0,0,10.72-.5c4.09-1.87,8.14-1.19,12.17.15,1.43.48,3.09,1,3.05,2.84,0,2-1.84,2.73-3.49,3-4.27.61-8.62.4-12.89,1.33A19,19,0,0,0,167,148.7c2.76,2.84,1.94,6.14,1.16,9.44a3.48,3.48,0,0,1-2.9.75,2.75,2.75,0,0,1-2.28-2c.86-4.4-3.16-5.91-5.22-8.48-3-3.78-7.8-5.73-10.59-10-2.47-3.83-6.42-6.76-5.35-12.16.16-.81-.58-2.53-1.11-2.62-6-1-5.76-7.75-9.87-10.42-1.1-.72-2.38-2-1.48-3.3,1.28-1.88,2.49,0,3.76.54C135.52,111.47,136.83,114.53,140,114Z"/>
    <path class="cls-71" d="M163,156.94l1.78,1.16c4.71,1.51,8.61,4.6,13,6.75,1.41.7,2.92,1.65,2.56,3.72-1.71,2.43-4.63-.29-6.49,1.53l-1.74-.13c-1.19-2.12-3.13-3.33-5.16-4.53-11.58-6.8-21.77-15-28.84-26.78-5.21-8.66-11.81-16.43-16.83-25.24-1.89-3.32-2.16-6.26,1.7-8.38a263,263,0,0,0,22.23,35C150.17,146.53,155.69,152.73,163,156.94Z"/>
    <path class="cls-72" d="M273,124l-2.1,5c-.78,5.53-4.44,9.64-7,14.29a8.58,8.58,0,0,1-2.47,2.54c-2,1.05-3.19.08-4-1.75a4.38,4.38,0,0,1-.1-2.11,8.45,8.45,0,0,1,3.43-5.19c1.28-.92,3-1.7,2.22-3.84a18.54,18.54,0,0,0-1-2.28c-1.11-1.94-1.81-3.53-4.56-4.69-3.44-1.45-4-6.1-2.57-10.12a2.37,2.37,0,0,1,3.4,1c2.62,4.13,6.4,7.52,8,12.37.21-2.3-1-4.18-1.8-6.18-1.42-3.63-1.09-6.52,3.33-7.6a2.89,2.89,0,0,1,1.33.35C270.55,118.42,273.67,120.32,273,124Z"/>
    <path class="cls-73" d="M262.94,142.95l7.94-14a34.74,34.74,0,0,1,7.14,3c4.3,2.43,8.3,2.31,11.73-2,1.26-1.59,2-.78,1.21,1-.24,3.2-3.12,4.13-5,5.9-4.6,2.52-9.34,3.26-14.31.93-.63,0-.27,1-.22.34,0-.25.16-.23.47-.19,1.69.2,2.82.92,2.88,2.79a2.66,2.66,0,0,1-.54,1.38c-2,.8-3.86.2-5.74-.4-1,.75.15-2.73-1.44-.74-1,1.22-1.53,2.8-3.2,3.36C263.07,144.16,262.49,143.89,262.94,142.95Z"/>
    <path class="cls-74" d="M274,142l0-1.08c.39-.31.88-.79,1.29-.68,4.05,1.07,7.21-.61,10.1-3.17,2.6-.13,3.56-3.78,6.56-3.06l2.06,0c1.07,5.08-1.38,7.79-6.06,9-2,2.4-4.78,3.43-7.71,4C274.14,148.33,273.89,148.09,274,142Z"/>
    <path class="cls-75" d="M273,124c-.25-.18-.69-.32-.73-.54-.5-2.82-3.47-4.61-3.22-7.73.83-1.39,3-.79,3.62-3,.53-2.06,2.6-2,4.33-.71l1.12,1.09-1.06,3c.31,2.11-.73,3.62-2.2,4.94Z"/>
    <path class="cls-76" d="M277.77,126.51c4.17-.8,7.29-1.16,9.76-3.4,1.39-1.26,3-.4,3.87.7s-.36,2.72-1.26,2.76C286.39,126.7,282.66,129.35,277.77,126.51Z"/>
    <path class="cls-77" d="M292,134c-2.27.92-3.12,4-6,4a1.44,1.44,0,0,1,0-2.05l5-5C292.51,131.56,292.87,132.57,292,134Z"/>
    <path class="cls-78" d="M274.86,121l2.19-4.94c2-.13,1.38,1,1,2C276.82,118.86,277.55,121.77,274.86,121Z"/>
    <path class="cls-79" d="M242.14,137.85l1.07-9.81c1.21-4.6,2.6-.57,3.92-.09a53.79,53.79,0,0,0,5.62,4c2.33,2.57,1.08,5.95,2,8.84a7.27,7.27,0,0,1,0,2.37c-.59,2.21-.43,4.57-1.3,6.73s-2,3.45-4.45,2a13,13,0,0,1-2.89-3.54C243.63,145.32,243.59,141.31,242.14,137.85Z"/>
    <path class="cls-80" d="M233,111c1.32-.43,2.66,1.73,4,0a4.43,4.43,0,0,1,4.83,2c2.35,1.55,6.19,2,4.89,6.34-1.06,1.56-1.32,3.57-2.73,4.94-4.75.36-6.55-3.46-9-6.37a10.45,10.45,0,0,0-1.67-1.65c-1.09-.69-3,.07-3.29-2.09C229.73,111.82,232.29,112.32,233,111Z"/>
    <path class="cls-81" d="M242.14,137.85c2.88,2.7,2.86,6.85,5,9.93.49,2.56,1.89,5.65-2.95,5.17-3.49-1.52-4.35-4.72-5.09-8.2,0,2.32,2.83,5-1.29,6.3-2-4.31-2.85-9.18-6.07-12.93,1.51-3.62,4.22-.43,6.26-1.1a20.79,20.79,0,0,0,3,2.28C243.33,140.52,242,138.54,242.14,137.85Z"/>
    <path class="cls-82" d="M243.8,123.85c.36-1.79.6-3.63,2.21-4.86.82-.38,1.28.13,1.72.7.85,1.87,2,3.6,2.89,5.43.24,1.89.2,3.51-2.5,2.7-1-.3-1.48.5-2.06,1.08-1.12.27-.85-4-2.85-.88l-.28-1C241.87,125.59,243,124.76,243.8,123.85Z"/>
    <path class="cls-83" d="M243.8,123.85l-.87,3.16c-2.7-1.89-5.48-3.67-7.64-6.22-.76-.89-1.74-1.74-.27-2.83C238.63,118.9,239.74,123.58,243.8,123.85Z"/>
    <path class="cls-84" d="M238,137c-1.62,2.68-4.3-1.11-6,1-3.73-1.94-3.94-2.94-1-4.8l2.86,0Z"/>
    <path class="cls-56" d="M310,182,300,186l-4.62,3.15c1.58,1.39,2.68.28,3.68-.22,2.25-1.12,3.36.87,4.8,1.7s.65,2.34,0,3.5A7,7,0,0,0,303,198c-4.05,2.53-7.28-.73-10.86-1.53-1.61-.07-3.2-3-4.82,0-.31,1.38-.16,3-2.14,3.69-2.61-3.28-2.05-7.69-3.85-11.24-1-2.7-3-4.81-4.17-7.38a9.52,9.52,0,0,0-4.91-5.93c-1.8-1.78-5-.6-6.48-3,.25-1.7,2.57-3,.93-5.06-.86-2-6.35-2.07-2.6-6.06a6.19,6.19,0,0,1,3.49-.46c2.88.67,5.79,1.62,8.27-1a7.38,7.38,0,0,1,1.14-.82c3.05-1.05,4.35.82,5.35,3.2-1.22,3.52-5,4.51-7.2,7.09.87,1.77,2.82,1.53,4.16,2.36,2.77,4.89,7.28,1.63,11,2.24,1.23.2,2.58-.65,3.91-.65,1.81,0,3.73,0,3.83,2.61l-8.38,5c6.11-.25,10.66-4.86,16.68-5.7-.34,1.7-1.71,1.73-2.62,2.31s-3.17.23-2.95,2,2.39,1.49,3.71,1.95C306.2,182.18,308.25,179.8,310,182Z"/>
    <path class="cls-85" d="M282,162c-1.78-.43-2.46-3.57-5-2-.9-.23-1.3-1-1.74-1.67-4.49-.23-7.88-2.64-11.16-5.39-1.57-1.32-2.53-2.36,0-3.54a4.5,4.5,0,0,1,1.38.08C268.9,151,272,153.29,276,153c3.29.41,6.82,3.21,9.65-1a1,1,0,0,1,1.69.11,1.52,1.52,0,0,1,.1,1.82c-.61,1.1-2.15,1.6-2.07,3.32,3-.53,4.59-3.36,7.52-4.83-.08,3.51-3.63,6.35-.8,9.64a24.87,24.87,0,0,1-2.5,2.83c-1.18,1.32-3.42,1.48-3.93,3.64,3.14,1.67,4.21-1.74,6.31-2.51,1.09.06,2.27-.17,3,1-.93,2.64-3.64,3.17-5.51,4.69,3.79.06,5.58-4.94,9.78-3.93,1.56,2.64,5.65,2.05,6.75,5.28h0l-8,3c-.68-1.05-2.09-2-2.85-1.64-5.19,2.55-11.56-1.2-16.6,3.38A4.49,4.49,0,0,0,279,172a24.84,24.84,0,0,1,8.26-10.4C285.24,161.2,283.79,163.6,282,162Z"/>
    <path class="cls-86" d="M274,142c3.68.86,1.24,2.84.67,4.3,4.94.58,9-1.82,13.32-3.26l1,1.93c-5.38,5.21-11.93,7-19.2,6.16A13.6,13.6,0,0,1,265,150l-.14-.08c-1.22-3.73-1-7,3-8.91C270,141,272.11,140.86,274,142Z"/>
    <path class="cls-87" d="M265,150A36.76,36.76,0,0,0,289,145c1.53.07,3.12.09,2.93,2.32-.14,1.57-1.32,1.63-2.52,1.73A37.49,37.49,0,0,0,276,153C271.28,156,268.43,152,265,150Z"/>
    <path class="cls-88" d="M327.05,219a6.33,6.33,0,0,0,.91-.12c5.73-2.88,11.23-6.43,18.07-5.9l7.86-2.15c-.79,2.68-3.16,3.32-5.39,3.82-11.53,2.6-22.25,7.41-33.21,11.61-9.14,3.51-18.47,6.22-28.54,3.86-2.83-.66-5.2-2.09-7.79-3.12q0-.49,0-1l2,0c2.91,2.45,6.37,3.08,10,3,5.93.65,11.55-.2,16.66-3.49C314.33,224,320.25,220.16,327.05,219Z"/>
    <path class="cls-89" d="M247.14,120,246,119c.53-1.06,1-2.08-.62-2.69a7.52,7.52,0,0,1-3.54-3.25c.36-1,.57-2.76,2-1A10.49,10.49,0,0,0,247,115l2.9,2C249.15,118.13,249.64,120.44,247.14,120Z"/>
    <path class="cls-90" d="M247.14,120l2.8-3.08c.47,2,1.31,2.85,3,1-.38-1.69.07-2.86,2-3.11a.8.8,0,0,1,.33.79q-.09.43-.22.43c.66,3.54.46,7.36,3.55,10.26l1-2.78c1.72,3.24,3.61,6.11,4.49,9.47-.92,2.42-2.24.68-3,.1-3.7-2.67-7.33-5.44-11.09-8A5.68,5.68,0,0,1,247.14,120Z"/>
    <path class="cls-91" d="M254.95,114.89l-2,3c-3.5-1.69-2.13-3.42.15-4.74,4.3-2.49,8.74-4.75,13.84-5.14,2.07,1.43,6,1.75,5.25,5.07-.67,3.06-4.35,1-6.51,2a8.12,8.12,0,0,1-3,.24C260.11,115.73,257.53,115.22,254.95,114.89Z"/>
    <path class="cls-92" d="M262,114a7.36,7.36,0,0,0,1.95,0c2.46-.69,6.21,1.19,7.18-.8,1.12-2.3-3.6-2.59-4.23-5.09,3.84,0,8.11-1,10,3.93-1.2.48-3.58-.89-3.53,1.39.1,4.26-2.49,2.48-4.42,2.36l-.92,0c-1.25-.39-2.07.55-3.07.95C262.27,117.78,261.6,116.46,262,114Z"/>
    <path class="cls-93" d="M215,127c-.66,1.41-.75,3,1.25,2.64,3.55-.58,6.7,1.19,10.1,1.19l2.56,1.32c0,2.65-2.67,1.85-3.94,3,0,1.62,2.51,2.79,1.11,4.78-3.49,1.62-4.64-2.47-7.27-3-2.25-1.24-4.53-2.44-5.74-4.9a9.28,9.28,0,0,0-.94-.11A19.26,19.26,0,0,1,209,122C211.89,122.59,212.36,126.11,215,127Z"/>
    <path class="cls-50" d="M226,140c.11-2.51-2.62-3.28-3.37-5.5,2-1,4.52-.76,6.27-2.34l2,1c-2.59,2.24.2,3.31,1,4.81,4.81,3,5.46,7.93,6.24,12.84a2,2,0,0,1-1.76.92,3.15,3.15,0,0,1-2.76-1.83,6.55,6.55,0,0,1-.35-1.31c-1.24-3.63-4.67-5.34-7-8Z"/>
    <path class="cls-12" d="M306,173c-2.46-1.48-6.34-1-7-5a2.11,2.11,0,0,1,3-.08c3-1,5.7-1.3,7.64,1.95,1,1.63,3.12.55,4.54,1.64C311.45,172.45,308.83,173.28,306,173Z"/>
    <path class="cls-94" d="M302,168l-3,.08c-3,.41-4.38,3.24-6.88,4.36-1.71.77-3.47.77-6.2,0L295,167c2.31-.52,4.58-1.31,7-1Z"/>
    <path class="cls-95" d="M346,213,328,218.88c1.39-3.71,4.21-5.12,8-4.94,2.35-3.07,5.62-3.26,9.06-2.93Z"/>
    <path class="cls-96" d="M188,199c2.21-3-2.14-2.47-2.15-4.64,2.49.56,5.25,1.37,7.14-1.36,3.82,1.1,4.16,3.56,2.76,6.83-.85,2-2.27,3.57-3.36,5.37s.54,1.1,1.27,1.16c5.18-.7,9.14-4.64,14.31-5.35l3-.06c2,0,1,1.21.57,1.82-1,1.4-2.73,1.82-4.27,2.38-5.46,2-9,5.63-9.38,11.59-.25,4.06-3.6,3.6-6,4.63-.55.34.43,1.09,0,.57-.12-.15,0-.31.27-.41,3.22-1.07,6.39-3,9.8-.55l.94,1c-1.77,2.44-4.87,2.49-7.2,4-1.24.78-2.73,1.2-3.87,2.18s-2.74,1.9-1.15,3.57c1.36,1.43,2.62.44,3.9-.51,2.41-1.78,3.58-5.35,7.35-5.21l1,1c-1.24,3-1.88,6.33-5.37,7.74-1.8.72-.94,2-.82,3.29.28,3.27-1,6.38-4.33,6.75-4.24.46-5.93,3-7.46,6.25a5.66,5.66,0,0,1-4,1c-2.85-2.65-.49-4.46,1.2-6.05,2.39-2.25,5.09-4.17,8.12-7.58-2.72,1.5-4.43,2.85-6.56,1.48-1.71-1.1-3.57-2.24-3.89-4.27-.84-5.27-3.5-6.13-8.3-4.62-2.52.79-5.72.75-7.26-2.56-.3-.26-.22-1.2-.38-.93a11.51,11.51,0,0,1-3.62,4c-.81.53-2.39,1.11-2.45,0-.16-3.11-1.05-.91-1.67-.36-3.05,2.74-6.13,5.28-10.37,2.1.39-3.58.83-6.6,6-5.55,2.63.53,3.81-2.57,4.76-4.79.78-1.82.19-3.18-1.84-3.78-1.12-.33-2.19-.8-2.25-2.25,1.41-3.28,4.85-3.68,7.49-5.15,3.31-1.84,7-2.94,10.43-4.45C176.56,205,181.54,200.4,188,199Z"/>
    <path class="cls-97" d="M153,216.91c7.13,3,7.5,5.35,1.48,11.05-1,.94-2.56,4.82-3.87,0-.17-.64-1.08.17-1.55.56a12.09,12.09,0,0,0-3,4.5c-1.39,3.83-4.42,6.23-8.16,5.91-6.24-.53-11.9,1.51-17.79,2.58a10.56,10.56,0,0,1-5.16,0c-.59-3.16-3.13-5.05-4.86-7.46l1.95-1c2.72-3.09,6.52-3.67,10.25-4.37,8.83-2.25,16.36-7.44,24.66-10.89a8.55,8.55,0,0,1,1.31-.52C149.77,217,151.33,216.21,153,216.91Z"/>
    <path class="cls-98" d="M125,213c1.93-3.67,5.46-3.23,8.55-2.87,3.88.45,7.83,1,11.42,2.85,2.24-.27,2.89,1.77,4.19,2.87.35,1.15-.53,1.62-1.22,2.2l.07,0c-7,2.75-13.61,6.37-20.56,9.22a19.22,19.22,0,0,1-5.14,1.53c-1.34-.34-2.24-1.26-1.46-2.5,1-1.66,3.79-2.2,3-5.06-.1-.39,1.1-.81,1.69-.49,3.37,1.79,6-.22,8.69-1.67,1.5-1.24,3.78-1.1,5.47-3.1C135,214.44,130.44,214,126,213Z"/>
    <path class="cls-99" d="M135,220c-1.25,1.54-3.46,1.2-4.89,3-2.09,2.58-3.16-2.14-5.4-1.48-1.18,1.74,1.25,1.94,1.41,3.12-1.32,1.19-5.08-.55-4.11,3.4.49.5,1.38.73,1.14,1.71-4,.1-7.39,2.4-11.18,3.27-1.56-2.33-3.75,1-6-1.15C113.66,225.26,121,218.72,132,219,132.87,219.71,134.28,218.8,135,220Z"/>
    <path class="cls-99" d="M110,234c.23.22.44.62.69.65,4.38.46,5.61,2.82,4.18,6.82A29.27,29.27,0,0,1,104,239.9C102.41,234.25,107.07,235,110,234Z"/>
    <path class="cls-62" d="M135,220c-1.1,0-2.28.18-3-1,2.16-3,.09-3.62-2.27-4-1.52-.23-3.44.41-3.72-2,4.91-2,9.39,1,14.1,1.41,2.53.21,1,2.37-.2,3.57S136.26,218.42,135,220Z"/>
    <path class="cls-100" d="M120,241.49a18.61,18.61,0,0,1,13.21-3.91c5.71.77,9.12-1.35,12.75-4.58,6.52,2.72,9.2-4.12,14.08-5.79.45,1.89-2,2.2-1.72,4.06,3.53-1,4.15-5.06,7.42-7L165,228c-1,3.08,1,2.5,2.89,2.65,4.49.35,5.45,2.48,3.11,6.31l-6.37,2.81c-3.58,0-7,1.78-10.64,1.09a5.09,5.09,0,0,0-3.64-1.28c-7.43,1-15,0-22.37,1.44C125.34,241.3,122.74,242.09,120,241.49Z"/>
    <path class="cls-101" d="M128,241c3.06-2.09,6.72-.94,10.07-1.8s6.87-.39,10.32-1.1c2.2-.45,4.78-.27,5.61,2.75C145.33,242.32,136.65,241.08,128,241Z"/>
    <path class="cls-102" d="M171,237c1-4.7.13-5.65-4.67-5.19-1.11.11-2.4.61-3-.74-.67-1.54.45-2.37,1.65-3,2.57,3.38,6.19,2.58,9,1.28,4.37-2,5.71-.51,6.16,3.56.13,1.13.35,2.59,1.1,3.25,2,1.77,3.69,6.11,7.19,1.52.64-.83,1.9-1.91,3-.93,1.27,1.19.16,2.68-.69,3.5-2.26,2.17-4.78,4.08-7.2,6.09-1.81,1.5-3.77,2.93-2.5,5.77-7.55,3.23-8.9,2.29-7.77-5.77a48.91,48.91,0,0,0,.56-6.83C173.8,237.41,172.71,236.91,171,237Z"/>
    <path class="cls-103" d="M262.15,200c.5-3.23-1.68-4.25-4.15-5,.38-2.55-1.55-3.8-2.93-5.43-3.34-3.95-5.21-8.3-3.09-13.52,1.39.09,2.14,1.26,3.25,2,.17-1.27-1.21-1.85-1.22-3-1.53-2.45,1.72-1.74,2-3,3-1.92,4.34,1,6.29,2.14a12.85,12.85,0,0,1,1.69,1.8c.61.79,1.39,1.69,1,2.66-.51,1.35-1.83,1.14-3,1-.82-.13-1.63-.37-2.24.46-.62,3.33,1.58,5.66,2.93,8.26,1.75,3.38,3.93,6.58,3.82,10.62a3.23,3.23,0,0,1-1.49,1.62A2.72,2.72,0,0,1,262.15,200Z"/>
    <path class="cls-104" d="M232.17,174l-2.12.06c-2-.8-3.21-2.92-5.37-3.56-1.68-.69-2.8-2.25-4.54-2.85-2.32-1.74-2.2-3.68-.49-5.76a2.71,2.71,0,0,1,2.1-.42c1.13.28,1.86,1.31,3,1.8,2.39-4.77,4-10.2,10.54-10.61,2.34,1.68,5.53,9.89,4.65,12.1-.42,1.07-1.47,1.25-2.47,1.37-1.59.19-3.44-.24-4.14,1.87C230.55,169.48,234.43,172.33,232.17,174Z"/>
    <path class="cls-105" d="M233,168c.1-2.79.1-2.79,6-3.21-2.84-3.38.79-9-4.06-11.66-2.09.1-2.59-1.18-2.57-2.93.26-.77.64-1.37,1.61-1.1l2,2a13.94,13.94,0,0,1,5.34,4.38c1.4,1.75,3,2.56,5.16,1.26,1.65.55,2.6,1.44,1.57,3.28-2.5.5-3.12,2.31-2.7,4.44.83,4.17-.74,7.51-3.3,10.58a2.28,2.28,0,0,1-.84-1.15C239.27,167.25,239.27,167.25,233,168Z"/>
    <path class="cls-106" d="M233,168a5.12,5.12,0,0,1,6.63-1.49c2.33,1,2.49,3.28,2.37,5.52-.05,1,0,2,0,3-3.79,4.54-6.72.83-9.84-1-.33-1.24.22-2.7-1-3.72-.69-.59-2.11-1-1.37-2.18S231.93,168.29,233,168Z"/>
    <path class="cls-107" d="M248,160a3.08,3.08,0,0,0-1.93-3c-2.44-.93-3.64-2.38-2.07-5,4.4,1.05,2.44-2.55,3.11-4.24L249,151c.84,1.8,2.42,3.15,3,5.54,3.94-3.47,6-7.91,9-11.5l1.87-2.05L264,144c-.52,6-5,9.77-8.06,14.33-1.29,1.61-2.32,3.47-4.27,4.44A2.82,2.82,0,0,1,249,163C247.82,162.28,248.06,161.07,248,160Z"/>
    <path class="cls-108" d="M231.09,177a7.52,7.52,0,0,0-4.09,1.06c-3.14,3.05-7.49,2.37-11.21,3.61-1.32-.46-2.84.33-4.09-.64a2.71,2.71,0,0,1-.19-2.71,86.41,86.41,0,0,0,9.7-4.44,17.8,17.8,0,0,1,1.93-.61,10.73,10.73,0,0,1,5.9.72C228.71,175.69,230.39,176,231.09,177Z"/>
    <path class="cls-109" d="M268,167c1.34,2.48,1.54,4.51-2,5a1.46,1.46,0,0,1-1.25.36A19.18,19.18,0,0,1,258,168c-1.19-1.74-4.24-.4-4.92-3,1.63-1.69,3.64-1.31,5.64-1.05C261.79,165,265.21,165,268,167Z"/>
    <path class="cls-110" d="M258,168c2.91.32,4.93,2.22,7,4a5.33,5.33,0,0,1-3,3c-2.24-.52-3.24-3.52-6-3-.77-.15-1.88-.22-1.57-1.28A3.64,3.64,0,0,1,258,168Z"/>
    <path class="cls-111" d="M259,165l-5.95,0c-2.22,1-3.18-.41-4-2.05l2-1c3.21-1.44,6.37-2.2,9.38.48.73.65,2,1.25,1.57,2.23C261.4,166,260.09,165.64,259,165Z"/>
    <path class="cls-112" d="M229,174c-2,1.6-4-.42-6,0-.62-2,.81-2.94,2-4,1.69-.37,1.91-.2,5,4Z"/>
    <path class="cls-113" d="M254,175c2.49.95,3.88,2.44,2.58,5.39A10.63,10.63,0,0,1,252,176,2.17,2.17,0,0,1,254,175Z"/>
    <path class="cls-114" d="M281,221c-2-1-4-1.89-5-4,1.44-1.78,3.5-.1,5.15-.89.21-2.7-4.31-4.28-1.74-7.48,1.1-.5,2.19.35,3.3,0,3.31,2.52,5.79,5.9,8.89,8.63,1.56,1.38,2.91,3.3,6.47,2.38a56.47,56.47,0,0,0-16.37-11.34,2.7,2.7,0,0,1-1.85-3.34c1.16-.83,3.14-1.26,1-3.27a6,6,0,0,1-2.3-5.1,1.42,1.42,0,0,1,.93-.93c3.76,1.68,5.22,5.63,8.1,8.19,2.66,4.32,6.78,7,10.82,9.83,2.63,1.82,4,1.29,3.53-2.11-.17-1.24,0-2.28,1.17-3,3.41-.26,5,2.45,7.21,4.28.8,5.53-4.44,7.44-6.68,11.15-.08.13-.36.18-.38.3-.16.86.53.2.78.39,1.28.06,2.5.21,3.29,1.39-1,2.19-2.68,1.24-4.23,1l-6-.22C292.7,222.17,285.92,224.06,281,221Z"/>
    <path class="cls-115" d="M280,205l1.93,3.07q.38.26.31.58T282,209c-.71,1.06-1.35,0-2-.07-3.59,1.52-7.1,3.78-11.13,1.19A28.74,28.74,0,0,1,262.15,200H265C270.59,199.86,275.32,202.34,280,205Z"/>
    <path class="cls-116" d="M268.89,210.1c3.59.08,7.28.62,10.21-2.27l.92,1.08c-2.14,2.4,1.16,3.19,1.51,4.88.27,1.3,2.84,2,1.77,3.54s-3,.56-4.52.11a19,19,0,0,0-2.87-.38A31.18,31.18,0,0,1,268.89,210.1Z"/>
    <path class="cls-117" d="M281,221c3.2.05,6.19,1.17,9.64.56,2.95-.52,4.5,3.2,6.41,5.35C291,226.65,285.46,225.31,281,221Z"/>
    <path class="cls-37" d="M303,227.17c1.34-.36,2.94.23,4-1.12a.7.7,0,0,1,1,.1c-5.2,3.81-11,4.07-17,2.85A46.37,46.37,0,0,0,303,227.17Z"/>
    <path class="cls-118" d="M215.15,181.09c3.74-1.82,7.8-2.38,11.84-3,.7,1,2.17,1.4,2,2.95a14.11,14.11,0,0,0-8.12,4.23c-3.53,3.46-8.68,2.47-12,3.81-1.62.38-.49,1.25-.89.72,2.62-.7,5.08-2.45,8-1.17,2.56,4.23,2.2,5.91-1.77,8.17-1.4.8-3,1.33-4.31,2.22l-2,1a72.86,72.86,0,0,1-14,7c-1.49.42-2.61,2-4.74,1.38a12.9,12.9,0,0,1,3.17-5.29c2.75-3.23,4.45-6.49.57-10.08l1-1,2-2.84c2.63-1.92,7.12,1.12,8.81-3.3-.09-1.52.88-2.2,2.09-2.7Q211.07,182.28,215.15,181.09Z"/>
    <path class="cls-27" d="M202,221c-3.72-.3-7.39.41-11.36.53,4.66-.74,6-3.7,6.56-7.8.8-5.79,5.4-8.1,10.26-10.11,1.24-.51,4,.31,3.5-2.65,1.15-1.41,2.75-.88,4.19-.94.8,0,1.8-.18,2.22.7.56,1.17-.4,2-1.19,2.43-3.6,2.11-5.09,7.16-10.3,7.14-1.43,0-2.19,1.53-1,3C208.19,217.47,205.48,219.36,202,221Z"/>
    <path class="cls-119" d="M216,189c-3-.52-5.77,1.77-9,.66.83-1.48,2.36-1.29,3.56-1.81,3.71-1.62,8.26-1.09,11.06-5.32A5.69,5.69,0,0,1,229,181L228,185.86c-.57,1.46-2.67,1.51-3,3.22l1,1.92-4,5C219,194.57,219.6,190,216,189Z"/>
    <path class="cls-27" d="M202,226c-2.41,2.25-5.07,4.3-7.17,6.81-2.39,2.86-4.19.9-5.72-.49-2.21-2-.47-3.24,1.3-4.59A36.6,36.6,0,0,1,203,222l1,.94Z"/>
    <path class="cls-120" d="M216,189c1.65-1,3.53-1.28,3.76,1.06s2.17,3.7,2.26,5.9c-3.46,3.16-8.1,1.62-12,3,.56-1.59,2.07-2.19,3.35-2.8C216.67,194.62,217.58,192.34,216,189Z"/>
    <path class="cls-27" d="M194,207a53.64,53.64,0,0,1,14-7q0,.49,0,1C203.68,203.83,199.32,206.53,194,207Z"/>
    <path class="cls-121" d="M225,189.09c-.82-2.47-.64-2.67,3-3.22.88.24,2.22-.19,2.5,1s-1,1.11-1.69,1.32C227.52,188.55,226.24,188.79,225,189.09Z"/>
    <path class="cls-122" d="M222,162l-1.93.06a4,4,0,0,1-4.2.76c-2.52-.93-4.85-.43-7.29.26-1.69.48-3.7,1.33-5-.62a5.25,5.25,0,0,1-.3-6.16,2,2,0,0,0-.66-.13c-2.29-.25-5.61,1-6-2.62-.29-2.89,2.07-4.29,4.81-4.72a7.34,7.34,0,0,0,2.68-1.26c3.22-.18,5.36,2.1,7.92,3.44,4.41,0,4.42-2.29,2.76-5.3a18.23,18.23,0,0,1-1.74-13.58l5.86,3.87c3.26,3.52,8.61,5.12,9.7,10.63-2.27,4-4.26,8.06-3.61,13C225.21,161,224.6,163.23,222,162Z"/>
    <path class="cls-123" d="M212.05,151c-3,0-5-3-8.05-3-2.49.58-3.86-1.55-5.78-2.36-5.79-3.18-11.36-6.75-17.94-8.35-2.4-.58-5.22-1.48-6.24-4.43q0-.46,0-.91l15,6h1c6.81,3.65,13.59,7.36,20.46,10.88A2.38,2.38,0,0,1,212.05,151Z"/>
    <path class="cls-124" d="M209,122l3.14,10c-3.07-.18-2-3-2.79-4.58-1.65-3.38-2.93-7-4.36-10.45C207.31,117.87,207.14,120.75,209,122Z"/>
    <path class="cls-125" d="M204,131c4,2.55,4.68,6.84,5.66,11A34.4,34.4,0,0,1,204,131Z"/>
    <path class="cls-126" d="M204,131a8.18,8.18,0,0,1-4.05-6l.11-.1a8.2,8.2,0,0,1,4,6Z"/>
    <path class="cls-127" d="M174,132.87c7.91,4.93,17.41,6.59,25.05,12.07,2,2.91.69,4.92-2.19,5.46-6.15,1.15-12.35,2.36-18.68,1.73-1.71-.17-3.23-.82-3.51-2.86,1.7-2.33,4.21-2.42,6.69-2.19a48.52,48.52,0,0,0,7.71-.19c-4.51,1.41-10.74-1.87-15.72,2.45-2,3.47-.85,7.13,3.27,10.1,1.6,1.16,3.4,2,5,3.21.86.63,2.14,1.24,1.15,2.72-6.37.41-10.8-3-14.79-7.39.12-1.87-2.82-3.91.3-5.62l-3.88-3.52c5.25-4.36,11.56-4.17,17.6-4.84,2.54-.28,6.86.88,7-1.77.18-3.2-4.44-2.2-6.89-3.07-2.14-.76-4.55-.09-6.72,1.06-6.51,3.48-12.35-.33-18.49-1L157,138h10.72c-6.65-.87-13.48-.66-19.28-4.92.63-1.64,2.09-.75,3-1.21,2.1-1,2.93-2.33.47-3.9-3-1.91-5-4.25-3.89-8.09Z"/>
    <path class="cls-60" d="M291.95,195.2c3.71.81,7.07,3,11.05,2.77l1,.82,1.87.26c-2.25,4.33-5.55.87-8.35,1.14-2.24-.71-4.55-1.32-5.9-3.53A1.66,1.66,0,0,1,291.95,195.2Z"/>
    <path class="cls-128" d="M308,226.15l-1-.1-4-.07c-.5-2,1.27-2.57,2.26-3.44,2.92-2.56,6.8-3.87,9.12-7.32.67-1,2.35-1.08,3.63-.23,2.76,1.93,7.06.36,9.05,4A55,55,0,0,1,308,226.15Z"/>
    <path class="cls-129" d="M318,215c-.81.11-2.19,0-2.34.36C313.36,221.23,306,221,303,226c-1.22,0-2.55.29-3.79-1,1.74-1.72,7.88-.73,2.46-6.61,7.78,3.64,5.75-3.44,8.3-5.31.33-.48.69-.47,1.06,0l5,1A2.12,2.12,0,0,1,318,215Z"/>
    <path class="cls-130" d="M319.09,204.91,323,210a2.82,2.82,0,0,1-3,3C318.24,210.46,316.66,207.91,319.09,204.91Z"/>
    <path class="cls-131" d="M297,199c3-.88,5.92,2.61,8.9,0,1.13,0,2.31-.22,3.09.93-.34.35-1.88-.45-1,1.06-1.71,2.13-2.81,4.34-1,7-3.4,1.59-4.77-2.77-7.69-2.6a5.23,5.23,0,0,1-3-5.19A2.63,2.63,0,0,1,297,199Z"/>
    <path class="cls-132" d="M307.88,208.09c.07-1.16,0-2.34.22-3.48s1.29-2,2.07-1.09c1.39,1.56,2.89,3.43,3.25,5.37.29,1.57-2.4,1.15-3.45,2.16C307.79,211.11,307.1,210.12,307.88,208.09Z"/>
    <path class="cls-133" d="M307.88,208.09A3.36,3.36,0,0,0,310,211l1.05,2L310,213c-2.88-.38-4.23-3.44-7-4-2.71,0-3.31-1.68-3-4,3.35-1.41,4.17,3.26,7.06,2.93A7,7,0,0,1,307.88,208.09Z"/>
    <path class="cls-134" d="M315.08,202.89l1.78.28c0,1.41-.46,2.65-2.13,2.49-.92-.09-2-.87-1.92-1.83C312.89,202.45,314.33,203.25,315.08,202.89Z"/>
    <path class="cls-135" d="M167,203a6,6,0,0,1,3,3.11.78.78,0,0,1-.34,1.22l-.75,0-.71-.25a33.89,33.89,0,0,0-13.86-5.86c-2.21-.47-4.56-.6-6.34-2.29-.75-1.12-1.92-.91-3-1,4.17-1.92,7.9.75,11.84,1.19,1.76.2,3.44,1.15,5.16,1.75C164.1,200.59,165.41,202.14,167,203Z"/>
    <path class="cls-136" d="M148.86,216c-2.2.16-2.52-2.09-3.88-3,.18-.79.47-2.1,1.38-1.53,5.09,3.15,8.83-.78,12.39-2.84,3.08-1.78-.2-3.34-1.81-4.47-2.39-1.68-6.15.08-7.94-3.13,5.45-1.7,10.08,1.13,14.87,2.82a17.06,17.06,0,0,1,4.94,3.16l.32,0c-1.5,3-4.92,2.81-7.36,4.25-2.86,1.68-5.94,3-8.88,4.53C151.53,216.52,150.28,217.35,148.86,216Z"/>
    <path class="cls-137" d="M168.81,207c-6.34-2.87-12.56-6.12-19.81-6-2.16-1.36-4.59-.93-6.94-1,1.74-1.79,4-.6,6-1A47.33,47.33,0,0,1,165,203.51C166.54,204.3,168.32,204.94,168.81,207Z"/>
    <path class="cls-138" d="M212.21,177.94l-.15,3.06c-1.31,1.28-2.68,2.43-4.66,2.45-2.7-.74-4.32,3.8-7.34,1.51-2.2-.42-1.69-3-3.17-4l-1.18-3.11a1.5,1.5,0,0,1,.38-1.41c4.17-2.77,8.81-1.07,13.24-1.38a5.75,5.75,0,0,1,2.62,1.46A1.38,1.38,0,0,1,212.21,177.94Z"/>
    <path class="cls-139" d="M196,189l-15.9-7C186.76,181.22,191.56,184.71,196,189Z"/>
    <path class="cls-140" d="M200.06,185c3,1.42,3.95-3.82,7-2.21q.45.41.26.77t-.35.34l-2.18,2C203.16,186,201.32,187.06,200.06,185Z"/>
    <path class="cls-141" d="M169.91,206.93a2.4,2.4,0,0,0,.1-.85c4.9-1.51,9.17-4.38,13.83-6.39,1.24-.53,2.46-2.59,4.17-.68l-17,9C170,208.39,169.72,207.89,169.91,206.93Z"/>
    <path class="cls-142" d="M173.83,170.1c1.59-2.17,4.7,0,6.27-2.2,1.6-1.42,3.42-1,5.15-.47A35.22,35.22,0,0,0,197,168.61a57.3,57.3,0,0,0,6.77-.53c2.36-.28,4.3.4,3.75,3.49a2.74,2.74,0,0,1-1.94,1.45,19.11,19.11,0,0,1-4.6.25,11.1,11.1,0,0,0-5.29.72L195,174C187.79,173.64,181.19,169.85,173.83,170.1Z"/>
    <path class="cls-143" d="M196.11,177a5.17,5.17,0,0,1-.39.85c-2.18-.92-3.37-2-.69-3.82L195,174c.77-.51,1.62-.59,2.13.21C197.93,175.44,197.05,176.28,196.11,177Z"/>
    <path class="cls-144" d="M197,170c-5.82.83-11.23-1.71-16.91-2.1-4.75-3.82-10.94-5.4-15.32-9.81L168,158c5,2.34,8.9,7,15,7a3.2,3.2,0,0,1,3.66-.49c3.35,1.71,7.17,1.83,10.55,3.36A1.78,1.78,0,0,1,197,170Z"/>
    <path class="cls-145" d="M249.92,125.05c5.15.4,7.83,4.86,11.81,7.2.72.43,1.13,1.85,2.33.73,2,2,.13,2.92-1.24,3.69A12,12,0,0,0,258,142c-2.32-.85-2-3-2.41-4.81-1-1.83-1.13-4.32-3.59-5.16-2.9.71-3.65-2.69-6-3.1.3-1.4-.82-4.66,2.6-2,.7.54,1.13.47,1.25-.43A10.53,10.53,0,0,0,249.92,125.05Z"/>
    <path class="cls-146" d="M262,114c.75,1.08.77,3.52,3.11,1.51a2.06,2.06,0,0,1,3,.28c-4,2.11-4,4.78-1.75,8.45,1.44,2.36,2.72,5.32.07,9-1.78-6.32-5.82-10.52-8.61-15.48A2.85,2.85,0,0,0,255,116l-.08-1.14C257.12,113.09,259.78,115,262,114Z"/>
    <path class="cls-147" d="M261.07,145c-1.5,5.47-5.24,9.39-9.54,14-.28-3.31-2.78-5.12-2.49-8.06,2,1.29,2.53.36,3.34-1.55.9-2.14-.29-4.67,1.54-6.49.93.36,1.26,1.7,2.52,1.49a4.88,4.88,0,0,1,1.61-.43C258.93,144.71,259.59,146.07,261.07,145Z"/>
    <path class="cls-148" d="M258.05,144l-1,1c-2.23-1.38-2.25-3.89-3.08-6-.64-2.6-.53-4.44,2.93-2.9.11,2,0,4.09,1.12,5.93Z"/>
    <path class="cls-149" d="M255,158c3.12-4.58,6.6-8.94,9-14a31,31,0,0,1,2.36-3.74c1.1-1.31,1.54-.53,1.56.76-3.26,2.21-2,5.95-3,8.91l-1.28.64c3.37,1.16,4.2,6.09,8.36,5.83,1.79-.11,3.32-.61,4,1.59-2.06,1.94-4.68,1.32-7.1,1.45-4.12.21-8.26-.16-12.37.37C255.65,159.52,254.76,159.22,255,158Z"/>
    <path class="cls-150" d="M286,135.9q0,1,0,2.06c-.16,0-.37,0-.48.09-4.61,3.66-4.61,3.67-11.44,2.86,0-2-2.38-2-3.55-4.34C276.23,139.1,281.13,137.7,286,135.9Z"/>
    <path class="cls-147" d="M256.9,136.07c-2.84-.42-2.93,1-2,3.06-.61.51-.07,1.59-1,2-2.07-2.72.17-6.34-1.89-9.07C256,130.55,254.67,135.45,256.9,136.07Z"/>
    <path class="cls-151" d="M253.9,141.09l1-2,2.19,5.83c-.22.75-.22,1.9-1.36,1.62-1.9-.47-1.57-2.24-1.77-3.65Q253.91,142,253.9,141.09Z"/>
    <path class="cls-152" d="M244,152c-.42,2.12,1.14,3.42,2.07,5-.59,2.33-1.28,4-3.63,1.16-2.06-2.46-4.33-4.74-6.51-7.11l2.26-.21c2.1-3.15-.71-5.91-.78-9.69C240.54,144.74,240.41,149.58,244,152Z"/>
    <path class="cls-153" d="M262,175c.73-1.29,1.06-3,3-3l1,0c1.88,2.08,5.67-.36,7,3,1,2.45,3.21,4,4.44,6.29,1.43,2.68,2.54,5.27-1.66,6.5-3.33-.14-3.79-3.93-5.94-4.86,2.15,2.85,5.37,5.2,8.14,8a7.51,7.51,0,0,1,.81,1.16c.51,1.28,1.45,2.55.19,3.91l0,0c-3.43.32-4.44-3-6.66-4.44-2.87-3.64-7.08-5.7-10.4-8.82-1.17-1.1-2.67-1.94-2.84-3.79,1.5-3.8,3.58,2.26,5.19-.9C264.3,176.93,262.39,176.44,262,175Z"/>
    <path class="cls-154" d="M282,162c2.57-.37,4.37-2.9,8.26-2.42L279,172c-2.69,1.81-4.12-1-6-1.86-1.47-.66-.66-1.77.85-2.17C277.37,167.07,279.51,164.28,282,162Z"/>
    <path class="cls-155" d="M279,196l-1-4c2.29-.4,2.25-3.14,4-4,2.27,3.32,2.33,7.36,3.63,12.38l.57-5.69a1.4,1.4,0,0,1,1.37.71,12,12,0,0,1,.34,7.27,2.79,2.79,0,0,1-1,1.3C283.13,202.48,282.14,198.16,279,196Z"/>
    <path class="cls-156" d="M256.08,159.08c6.54-2.14,13.29-.61,19.92-1.08l1,2h0c-2.74,1.84-5.95,1.56-9,2l-4,0C260.86,162.4,258,162.05,256.08,159.08Z"/>
    <path class="cls-32" d="M256.08,159.08c2.53,1.28,5.64,1,7.93,3-.76,1.37-.64,2.48,1.06,2.85A3.6,3.6,0,0,1,268,167c-2.82-1.47-6.25-.11-9-2,.56-.44,2.64-.25,1.73-.77-2.3-1.34-4.68-4.83-8-1.5-1,1-1.64.68-1.69-.74,1.93-.74,2.5-2.83,4-4Z"/>
    <path class="cls-157" d="M282,188c-1.17,1.52,1.16,6.56-4,4l0,0c-.62-1.91-3.31-2.57-3-5,4.66-.67,2.29-3.67,2-6a.61.61,0,0,1,1,0C279.29,183.36,281.48,185.19,282,188Z"/>
    <path class="cls-85" d="M268,162c2.66-2.18,5.85-2,9-2C274.74,164,271.48,163.5,268,162Z"/>
    <path class="cls-158" d="M278,181h-1c-2.83-1-4.55-2.78-4-6C275.79,176.06,277.73,177.84,278,181Z"/>
    <path class="cls-159" d="M286.91,195.14l-.69-.47c1.53-1.66,1.69-1.65,5.73.52q0,.48.07,1C290,197.6,288.42,196.42,286.91,195.14Z"/>
    <path class="cls-50" d="M228,146l-9.09-10c3.18-.11,4,4,7.08,4h0c3,2.69,6.53,4.85,8.09,8.84l-.12.24-1.06,1C230,150.21,229.05,148,228,146Z"/>
    <path class="cls-160" d="M234.08,148.83,226,140C229.87,141.85,233.39,144.05,234.08,148.83Z"/>
    <path class="cls-161" d="M169.91,206.93l1.16,1.13c-6,2.94-12.47,5.07-18.09,8.86-1.52,1-3.32.87-5,1.13l.9-2.06c7.36-1.62,13.47-6.08,20.27-9A4.37,4.37,0,0,0,169.91,206.93Z"/>
    <path class="cls-162" d="M123.15,229.71,122,228c7.35-1.89,13.94-5.65,20.9-8.52,1.66-.68,3.19-1.77,5.12-1.49C140,222.48,131.93,226.85,123.15,229.71Z"/>
    <path class="cls-163" d="M259.11,178.94c4.53,4.13,10.18,7,13.91,12,.35.57-.13-.11.26.42,1.9,2.58,3.12,5.46.68,8.1s-5.39,1.29-8-.51c-1.24-5.21-4.28-9.58-6.63-14.27C258.48,182.91,256.81,181,259.11,178.94Z"/>
    <path class="cls-164" d="M266,199a14.06,14.06,0,0,1,2,.18c5.5,1.28,6.92-.16,5.64-5.79-.18-.81-.41-1.6-.61-2.4l6,5a9.2,9.2,0,0,0,2.92,5.44c.88.9,2.43,1.79,1.86,3.14-.79,1.86-2.56-.25-3.8.43-.79.15-2,.71-2.32.4-3.48-3.64-8.83-2.75-12.68-5.39Z"/>
    <path class="cls-165" d="M197,168c-5.14,1.16-9.21-2.55-14-3-4.4-3-9.17-5.5-12.41-10-.94-1.29.27-4.78,2.42-6a1.36,1.36,0,0,1,2,0c2,3.41,5.4,1.93,8.14,1.88,4.09-.07,8.15-1.17,12.25-1.28,3.51-.1,4-1.91,3.71-4.66L204,148c.49,1.33,1.11,2.81-1.37,2.29a4.14,4.14,0,0,0-3.34.21,3.71,3.71,0,0,0-1.82,3.32c.16,1.58,1.76,1.1,2.83,1.15,1.48.07,3,0,5.25,0-3.11,2.31-2.34,5-1.09,7,1,1.61,3.78.41,4.87-.39,3.9-2.84,7.16,1.49,10.75.47-.27,1.76-2,3.77.9,5,1.69,1.68,2.84,3.6.69,5.56-2.5,2.28-5.18,1.68-7.68-.26-2.14-3.53-4.93-4.9-9.28-4C202.33,168.81,199.51,169.29,197,168Z"/>
    <path class="cls-166" d="M228,146l4.87,4a3.94,3.94,0,0,0,2,3.08c-.6,1.41-1.79,1.68-3.17,2-1.21.28-4.43-.19-1.67,2.87.83.92-.83.93-1.42,1.27a4.42,4.42,0,0,0-2.32,2.48c-.36,1.22,1.58,3.38-.88,3.56-1.52.12-2.6-1.82-3.45-3.27,3-.59,2.2-3.13,1.89-4.72-.7-3.55-.66-6.53,2.74-8.75C227.34,148.07,227.57,146.86,228,146Z"/>
    <path class="cls-167" d="M214,170.92c2,1.49,3.95,2.89,6.63,1.29s.07-3.48.36-5.19c2.26-.23,2.68,2,4,3,.17,1.76-1.43,2.62-2,4l-1.17.81c-1.76-.73-3.09.34-4.49,1.09-1.67.9-3.26,2.14-5.33,1.1l-2-1a.84.84,0,0,1-.27-.78c.06-.27.13-.41.2-.41C212.21,174.5,213.09,172.7,214,170.92Z"/>
    <path class="cls-168" d="M212,177c3.47.14,5.83-4.66,9.82-2.19-3.26.88-5.53,4.78-9.61,3.12A2.08,2.08,0,0,1,212,177Z"/>
    <path class="cls-169" d="M207,183.87l.09-1.11c1.93.2,2.67-3,5-1.76,1,.23,2.09-.95,3.09.09A11.89,11.89,0,0,1,207,183.87Z"/>
    <path class="cls-170" d="M287,204q0-.47.07-.94c3.4-.73,6.09-3.81,9.95-3,.44,2,1,3.92,3,5,.83,1.46,1.28,3.21,3,4-.8,2.49,2,6.09-1,7.43-2.37,1-4.77-1.8-6.64-3.47C292.22,210.3,287.54,209,287,204Z"/>
    <path class="cls-171" d="M282,209a8.51,8.51,0,0,1-.13-.92c3.16-2.08,4,1.73,6,2.57a39.63,39.63,0,0,1,9,5.94c1.08.87,3.8,1.77,1.79,4.17-1.75,2.09-3.76,1.11-5.26-.15A88.05,88.05,0,0,1,282,209Z"/>
    <path class="cls-172" d="M175,149h-2c0-.61-.13-1.72,0-1.76,6.53-1.7,13.22-1,19.88-1.29-2.83,2.64-6.48,2.68-9.69,2.4A23.7,23.7,0,0,0,175,149Z"/>
    <path class="cls-173" d="M297,200c-.49,0-1.34-.09-1.41.08-1.67,4.49-5.49,2.58-8.54,2.91q-.06-3.94-.12-7.88l5.11,1,5,2.84Z"/>
    <path class="cls-174" d="M209.85,175.09q.08.46.13.93c-4.62.45-9.36-.91-13.87,1,.29-1.27,1.35-2.82-1.14-3.05,1-2.6,3.16-1.86,5.11-1.72,1.63,2.56,3.21,1.4,4.78-.07l2.26-.17C209.23,172,209.59,173.49,209.85,175.09Z"/>
    <path class="cls-175" d="M209.85,175.09,207.12,172c.13-2.21-.79-3.86-3.05-2.82s-4.73.54-7.07.83q0-1,0-2c4.24-1.76,8.85.23,13.32-1.75,2.92-1.3,1.61,3.64,3.67,4.64C214.75,174.44,213.88,176.33,209.85,175.09Z"/>
    <path class="cls-176" d="M204.86,172.17c-.11,2.77-1.74,3.27-4.1,2.8s-1.38-1.59-.69-2.73Z"/>
    <path class="cls-177" d="M275,187c.71,1.85,3.13,2.68,3,5-4.28-3.31-7.85-7.32-12-11.72C271,180.69,272.17,184.93,275,187Z"/>
  </g>
</svg>
